<svg xmlns="http://www.w3.org/2000/svg" data-name="Layer 2" viewBox="0 0 35 35" id="trello"><path d="M25.37,34.75H9.63A9.39,9.39,0,0,1,.25,25.37V9.63A9.39,9.39,0,0,1,9.63.25H25.37a9.39,9.39,0,0,1,9.38,9.38V25.37A9.39,9.39,0,0,1,25.37,34.75ZM9.63,2.75A6.89,6.89,0,0,0,2.75,9.63V25.37a6.89,6.89,0,0,0,6.88,6.88H25.37a6.89,6.89,0,0,0,6.88-6.88V9.63a6.89,6.89,0,0,0-6.88-6.88Z"></path><path d="M12.81 27H10a3.26 3.26 0 0 1-3.26-3.25V11.23A3.26 3.26 0 0 1 10 8h2.8a3.26 3.26 0 0 1 3.26 3.26V23.78A3.26 3.26 0 0 1 12.81 27zM10 10.47a.76.76 0 0 0-.76.76V23.78a.76.76 0 0 0 .76.75h2.8a.76.76 0 0 0 .76-.75V11.23a.76.76 0 0 0-.76-.76zM25 18.93h-2.8a3.26 3.26 0 0 1-3.26-3.26V11.23A3.26 3.26 0 0 1 22.19 8H25a3.26 3.26 0 0 1 3.26 3.26v4.44A3.26 3.26 0 0 1 25 18.93zm-2.8-8.46a.76.76 0 0 0-.76.76v4.44a.76.76 0 0 0 .76.76H25a.76.76 0 0 0 .76-.76V11.23a.76.76 0 0 0-.76-.76z"></path></svg>